<svg width="48" height="48" viewBox="0 0 48 48" fill="none" xmlns="http://www.w3.org/2000/svg">
<path d="M14.5992 22.3938C13.5998 21.4403 10.1154 21.4981 9.92636 25.3701M11.3579 31.1783C10.9258 31.525 10.8063 33.8712 12.3033 34.5013C13.951 35.1948 15.4366 36.1773 14.167 38.1133M7.38738 21.3825C5.79374 19.668 4.03264 15.2912 9.73731 11.5M10.1155 17.0192C11.7721 17.4237 14.6208 17.0596 12.7625 12.3669M8.79193 28.462C6.00983 30.8026 0.175508 25.139 5.76673 18.0883M20.5158 27.3351V39.4144M20.5158 39.4144C20.5158 39.4144 20.5306 40.3607 20.5158 40.9451C20.2187 43.4302 11.6113 44.394 9.40697 38.1422M20.5158 39.4144C20.4356 37.4506 19.933 36.9183 18.1659 37.3909M9.40697 38.1422C9.05595 37.1467 8.79762 35.9528 8.65811 34.5302M9.40697 38.1422C7.49169 37.7858 3.49783 35.686 5.28054 28.3464M14.6834 11.2768C13.8731 12.057 10.9559 12.9527 9.90252 11.4212C8.45606 9.31832 15.8179 2.08781 20.4367 6.5956C20.6063 6.76106 20.5416 8.52373 20.4367 9.02287C20.3525 9.24613 18.9781 10.8722 17.2494 10.8722M20.5146 8.49483V18.2222C20.5146 18.564 17.6422 20.553 16.1389 18.6883M20.5146 18.2906V27.1039C19.6402 26.126 17.8126 25.439 16.4688 27.3351M16.4688 27.3351C15.9861 28.0162 15.5658 29.0307 15.2745 30.4848M16.4688 27.3351C15.8726 27.5277 14.4102 27.7512 13.3297 27.1039M31.415 34.8325V31.0195L41.0282 26.4092V26.0972L31.415 21.4869V17.6739L44.5713 24.5026V28.0037L31.415 34.8325ZM26.5661 5.33988C26.8263 5.20855 27.1829 5.14288 27.636 5.14288C28.3107 5.14288 29.048 5.28151 29.848 5.55877C30.6481 5.82143 31.2553 6.14976 31.6698 6.54376L25.8142 42.8572H25.554C24.86 42.8572 24.2239 42.7258 23.6455 42.4632C23.0672 42.2005 22.5178 41.7992 21.9973 41.2593L26.5661 5.33988Z" stroke="url(#paint0_linear_2805_5901)" stroke-width="1.5" stroke-linecap="round"/>
<defs>
<linearGradient id="paint0_linear_2805_5901" x1="3" y1="24" x2="45" y2="24" gradientUnits="userSpaceOnUse">
<stop stop-color="#986DFF"/>
<stop offset="1" stop-color="#1668DC"/>
</linearGradient>
</defs>
</svg>
