<svg width="32" height="32" viewBox="0 0 32 32" fill="none" xmlns="http://www.w3.org/2000/svg">
<path d="M2.18182 27.9999H7.27273V15.6363L0 10.1818V25.8181C0 27.0254 0.978182 27.9999 2.18182 27.9999Z" fill="#4285F4"/>
<path d="M24.7271 27.9999H29.818C31.0252 27.9999 31.9998 27.0218 31.9998 25.8181V10.1818L24.7271 15.6363" fill="#34A853"/>
<path d="M24.7271 6.18178V15.6363L31.9998 10.1818V7.27269C31.9998 4.57451 28.9198 3.03633 26.7634 4.65451" fill="#FBBC04"/>
<path d="M7.27295 15.6363V6.18176L16.0002 12.7272L24.7275 6.18176V15.6363L16.0002 22.1818" fill="#EA4335"/>
<path d="M0 7.27269V10.1818L7.27273 15.6363V6.18178L5.23636 4.65451C3.07636 3.03633 0 4.57451 0 7.27269Z" fill="#C5221F"/>
</svg>
