<svg width="32" height="32" viewBox="0 0 32 32" fill="none" xmlns="http://www.w3.org/2000/svg">
<path d="M2.36816 29.3909L4.27466 22.4434C3.09685 20.4053 2.47819 18.0933 2.48103 15.7405C2.48414 8.34784 8.51171 2.33362 15.9187 2.33362C19.5131 2.33544 22.8868 3.73154 25.4241 6.26581C27.9614 8.80008 29.3575 12.1687 29.3562 15.7512C29.3529 23.1433 23.3244 29.1586 15.9185 29.1586H15.9127C13.6639 29.1577 11.4543 28.5946 9.49153 27.5265L2.36816 29.3909Z" fill="white"/>
<path d="M15.9226 4.59842C9.76185 4.59842 4.75171 9.59714 4.74952 15.7413C4.74649 17.8394 5.33844 19.8955 6.45695 21.6719L6.72268 22.0935L5.5942 26.2054L9.82139 25.0991L10.2296 25.3405C11.9439 26.356 13.9096 26.893 15.9142 26.8941H15.9184C22.0743 26.8941 27.0845 21.8948 27.0868 15.7503C27.0915 14.2857 26.805 12.8348 26.244 11.4815C25.6831 10.1283 24.8587 8.8995 23.8186 7.86637C22.7844 6.8276 21.554 6.0039 20.1986 5.44295C18.8432 4.882 17.3898 4.59495 15.9226 4.59842Z" fill="url(#paint0_linear_3162_1164)"/>
<path fill-rule="evenodd" clip-rule="evenodd" d="M12.56 10.1355C12.3083 9.57751 12.0435 9.56621 11.8044 9.55654L11.1608 9.54871C10.9369 9.54871 10.5731 9.63256 10.2656 9.96795C9.95802 10.3034 9.09033 11.114 9.09033 12.7627C9.09033 14.4114 10.2935 16.0046 10.4612 16.2284C10.6288 16.4523 12.7839 19.9435 16.1967 21.2868C19.0328 22.4031 19.6099 22.181 20.2258 22.1253C20.8416 22.0695 22.2122 21.3147 22.4918 20.5321C22.7715 19.7496 22.7716 19.0791 22.6878 18.939C22.604 18.7988 22.3801 18.7155 22.044 18.5478C21.708 18.3801 20.0575 17.5695 19.7498 17.4576C19.4421 17.3456 19.2184 17.29 18.9943 17.6254C18.7702 17.9608 18.1275 18.7153 17.9315 18.939C17.7356 19.1626 17.54 19.1907 17.2039 19.0232C16.8679 18.8557 15.7867 18.5017 14.5039 17.36C13.5058 16.4718 12.8321 15.3748 12.6359 15.0396C12.4398 14.7044 12.6151 14.5228 12.7835 14.3559C12.9342 14.2057 13.1192 13.9645 13.2874 13.7689C13.4556 13.5733 13.5109 13.4335 13.6227 13.2102C13.7345 12.9869 13.6788 12.7908 13.5948 12.6233C13.5108 12.4557 12.8584 10.7983 12.56 10.1355Z" fill="white"/>
<defs>
<linearGradient id="paint0_linear_3162_1164" x1="15.6908" y1="5.93637" x2="15.8036" y2="24.9894" gradientUnits="userSpaceOnUse">
<stop stop-color="#57D163"/>
<stop offset="1" stop-color="#23B33A"/>
</linearGradient>
</defs>
</svg>
