<svg width="48" height="48" viewBox="0 0 48 48" fill="none" xmlns="http://www.w3.org/2000/svg">
<rect width="48" height="48" rx="24" fill="#141414"/>
<path d="M17.1453 22.8075C16.4166 22.0996 13.8759 22.1425 13.738 25.0172M14.7819 29.3293C14.4668 29.5867 14.3796 31.3286 15.4712 31.7964C16.6727 32.3113 17.7559 33.0407 16.8302 34.4781M11.8867 22.0567C10.7247 20.7838 9.44054 17.5343 13.6002 14.7197M13.8759 18.8172C15.0839 19.1176 17.1611 18.8473 15.8061 15.3633M12.9109 27.3127C10.8822 29.0504 6.62805 24.8456 10.705 19.611M21.4595 26.476V35.444M21.4595 35.444C21.4595 35.444 21.4703 36.1465 21.4595 36.5805C21.2429 38.4254 14.9667 39.141 13.3593 34.4995M21.4595 35.444C21.4011 33.986 21.0346 33.5909 19.746 33.9417M13.3593 34.4995C13.1034 33.7604 12.915 32.874 12.8133 31.8179M13.3593 34.4995C11.9628 34.2349 9.05058 32.676 10.3505 27.2269M17.2067 14.5539C16.6159 15.1332 14.4888 15.7982 13.7207 14.6612C12.666 13.0999 18.0339 7.73184 21.4018 11.0785C21.5255 11.2014 21.4783 12.51 21.4018 12.8806C21.3405 13.0463 20.3383 14.2536 19.0778 14.2536M21.4586 12.4886V19.7104C21.4586 19.9642 19.3642 21.4408 18.268 20.0565M21.4586 19.7612V26.3044C20.8211 25.5784 19.4884 25.0683 18.5086 26.476M18.5086 26.476C18.1566 26.9817 17.8501 27.7349 17.6377 28.8144M18.5086 26.476C18.0739 26.619 17.0075 26.785 16.2197 26.3044M29.4069 32.0423V29.2114L36.4165 25.7886V25.557L29.4069 22.1342V19.3033L39 24.3732V26.9724L29.4069 32.0423ZM25.8712 10.1463C26.0609 10.0488 26.321 10 26.6513 10C27.1433 10 27.6809 10.1029 28.2643 10.3088C28.8476 10.5038 29.2904 10.7475 29.5926 11.04L25.323 38H25.1332C24.6272 38 24.1633 37.9025 23.7416 37.7075C23.3199 37.5125 22.9193 37.2145 22.5398 36.8137L25.8712 10.1463Z" stroke="white" stroke-width="0.5" stroke-linecap="round"/>
</svg>
