<svg width="40" height="40" viewBox="0 0 40 40" fill="none" xmlns="http://www.w3.org/2000/svg">
<g clip-path="url(#clip0_3059_4324)">
<path d="M7.08333 0H32.9167C36.8333 0 40 3.24786 40 7.26496V32.735C40 36.7521 36.8333 40 32.9167 40H7.08333C3.16667 40 0 36.7521 0 32.735V7.26496C0 3.24786 3.16667 0 7.08333 0Z" fill="#470137"/>
<path d="M21.0327 10.5128L16.0327 18.9743L21.366 27.9487C21.3994 28.017 21.416 28.0854 21.3994 28.1538C21.3827 28.2222 21.316 28.1709 21.216 28.188H17.3994C17.1327 28.188 16.9494 28.1709 16.8327 27.9999C16.4827 27.282 16.116 26.5811 15.766 25.8632C15.416 25.1623 15.0327 24.4444 14.6327 23.7093C14.2327 22.9743 13.8327 22.2393 13.4327 21.4871H13.3994C13.0494 22.2222 12.666 22.9572 12.2827 23.6922C11.8994 24.4273 11.516 25.1623 11.1494 25.8803C10.766 26.5982 10.3827 27.3333 9.99938 28.0341C9.93271 28.2051 9.79938 28.2222 9.61604 28.2222H5.94938C5.88271 28.2222 5.83271 28.2563 5.83271 28.1709C5.81604 28.1025 5.83271 28.0341 5.86604 27.9828L11.0494 19.2649L5.99938 10.4957C5.94938 10.4273 5.93271 10.3589 5.96604 10.3247C5.99938 10.2734 6.06604 10.2563 6.13271 10.2563H9.91604C9.99938 10.2563 10.0827 10.2734 10.1494 10.2905C10.216 10.3247 10.266 10.376 10.316 10.4444C10.6327 11.1794 10.9994 11.9145 11.3827 12.6495C11.7827 13.3846 12.166 14.1025 12.5827 14.8204C12.9827 15.5384 13.3494 16.2563 13.6994 16.9914H13.7327C14.0827 16.2393 14.4494 15.5042 14.816 14.7863C15.1827 14.0683 15.566 13.3504 15.9494 12.6324C16.3327 11.9145 16.6994 11.1794 17.066 10.4786C17.0827 10.4102 17.116 10.3418 17.166 10.3076C17.2327 10.2734 17.2994 10.2563 17.3827 10.2734H20.8994C20.9827 10.2563 21.066 10.3076 21.0827 10.3931C21.0994 10.4102 21.066 10.4786 21.0327 10.5128Z" fill="#FF61F6"/>
<path d="M28.7341 28.547C27.5008 28.5641 26.2674 28.3077 25.1508 27.7778C24.1008 27.2821 23.2341 26.4616 22.6341 25.453C22.0174 24.4103 21.7174 23.1111 21.7174 21.5556C21.7008 20.2906 22.0174 19.0428 22.6341 17.9487C23.2674 16.8376 24.1841 15.9146 25.2841 15.2992C26.4508 14.6325 27.8508 14.3077 29.5008 14.3077C29.5841 14.3077 29.7008 14.3077 29.8508 14.3248C30.0008 14.3419 30.1674 14.3419 30.3674 14.359V8.95729C30.3674 8.83763 30.4174 8.76926 30.5341 8.76926H33.9174C34.0008 8.75216 34.0674 8.82054 34.0841 8.88892C34.0841 8.90601 34.0841 8.9231 34.0841 8.9231V25.1966C34.0841 25.5043 34.1008 25.8462 34.1174 26.2222C34.1508 26.5812 34.1674 26.9231 34.1841 27.2137C34.1841 27.3334 34.1341 27.4359 34.0174 27.4872C33.1508 27.8633 32.2341 28.1368 31.3008 28.3077C30.4508 28.4616 29.6008 28.547 28.7341 28.547ZM30.3674 25.1282V17.6069C30.2174 17.5727 30.0674 17.5385 29.9174 17.5214C29.7341 17.5043 29.5508 17.4872 29.3674 17.4872C28.7174 17.4872 28.0674 17.624 27.4841 17.9317C26.9174 18.2222 26.4341 18.6496 26.0674 19.1966C25.7008 19.7436 25.5174 20.4787 25.5174 21.3675C25.5008 21.9658 25.6008 22.5641 25.8008 23.1282C25.9674 23.5898 26.2174 24 26.5508 24.3419C26.8674 24.6496 27.2508 24.8889 27.6841 25.0257C28.1341 25.1795 28.6008 25.2479 29.0674 25.2479C29.3174 25.2479 29.5508 25.2308 29.7674 25.2137C29.9841 25.2308 30.1674 25.1966 30.3674 25.1282Z" fill="#FF61F6"/>
</g>
<defs>
<clipPath id="clip0_3059_4324">
<rect width="40" height="40" fill="white"/>
</clipPath>
</defs>
</svg>
