<svg width="40" height="40" viewBox="0 0 40 40" fill="none" xmlns="http://www.w3.org/2000/svg">
<path d="M38.1231 11.7748C38.1228 11.1034 37.9789 10.5102 37.6876 10.0011C37.4016 9.50039 36.9734 9.08076 36.3987 8.74897C31.656 6.02191 26.9089 3.30316 22.1677 0.573256C20.8895 -0.162522 19.6503 -0.135721 18.3815 0.610669C16.4938 1.7209 7.04255 7.12066 4.2263 8.74744C3.06637 9.41693 2.50197 10.4416 2.50176 11.7736C2.5 17.2579 2.50176 22.742 2.5 28.2265C2.50022 28.8831 2.63811 29.4649 2.91641 29.9663C3.20261 30.4821 3.6369 30.9133 4.22466 31.2526C7.04124 32.8794 16.4937 38.2788 18.3809 39.3892C19.6503 40.1361 20.8895 40.1627 22.1681 39.4266C26.9093 36.6966 31.6569 33.978 36.4003 31.251C36.9881 30.9118 37.4224 30.4804 37.7086 29.965C37.9866 29.4634 38.1247 28.8817 38.125 28.2251C38.125 28.2251 38.125 17.2592 38.1231 11.7748Z" fill="#9B4993"/>
<path d="M20.3665 19.9465L2.91602 29.9663C3.20222 30.4821 3.63651 30.9133 4.22426 31.2525C7.04084 32.8793 16.4933 38.2787 18.3806 39.3892C19.6499 40.136 20.8891 40.1627 22.1677 39.4266C26.9089 36.6966 31.6565 33.978 36.3999 31.251C36.9877 30.9118 37.422 30.4803 37.7082 29.965L20.3665 19.9465Z" fill="#682876"/>
<path d="M15.1992 22.9145C16.2147 24.6823 18.1236 25.8747 20.3134 25.8747C22.5167 25.8747 24.4365 24.6672 25.4468 22.8805L20.3678 19.9465L15.1992 22.9145Z" fill="#682876"/>
<path d="M38.1234 11.7747C38.1231 11.1033 37.9792 10.5101 37.6879 10.001L20.3672 19.9465L37.7089 29.9649C37.9868 29.4633 38.1249 28.8816 38.1253 28.225C38.1253 28.225 38.1253 17.2591 38.1234 11.7747Z" fill="#823085"/>
<path d="M25.4464 22.8803C24.4361 24.667 22.5163 25.8745 20.313 25.8745C18.1233 25.8745 16.2143 24.6821 15.1988 22.9143C14.7056 22.0553 14.422 21.0607 14.422 19.9998C14.422 16.7553 17.0595 14.1251 20.313 14.1251C22.4888 14.1251 24.3875 15.3026 25.408 17.0524L30.5571 14.0955C28.5105 10.5725 24.6895 8.20215 20.313 8.20215C13.779 8.20215 8.48242 13.4842 8.48242 19.9998C8.48242 22.1373 9.05263 24.1418 10.0493 25.8709C12.0908 29.4126 15.9227 31.7975 20.313 31.7975C24.7113 31.7975 28.5493 29.4031 30.5878 25.8509L25.4464 22.8803Z" fill="white"/>
<path d="M30.7812 17.2104H31.9514V22.8624H30.7812V17.2104Z" fill="white"/>
<path d="M33.3789 17.2104H34.5489V22.8624H33.3789V17.2104Z" fill="white"/>
<path d="M29.832 18.1587H35.4997V19.3255H29.832V18.1587Z" fill="white"/>
<path d="M29.832 20.7476H35.4997V21.9145H29.832V20.7476Z" fill="white"/>
</svg>
