<svg width="40" height="40" viewBox="0 0 40 40" fill="none" xmlns="http://www.w3.org/2000/svg">
<path d="M5.575 36.0015L2.36523 0H37.6352L34.422 35.9958L19.9787 40L5.575 36.0015Z" fill="#264DE4"/>
<path d="M31.6709 33.7038L34.4169 2.9436H20V36.9394L31.6709 33.7038Z" fill="#2965F1"/>
<path d="M9.72297 16.2961L10.1187 20.7115H19.9995V16.2961H9.72297ZM9.32914 11.7746H19.9995V7.35913H8.92773L9.32914 11.7746ZM19.9995 27.7634L19.9802 27.7686L15.0627 26.4408L14.7484 22.9192H10.3159L10.9345 29.8521L19.9792 32.363L19.9995 32.3573V27.7634Z" fill="#EBEBEB"/>
<path d="M19.9844 16.2961V20.7115H25.4215L24.909 26.438L19.9844 27.7671V32.3608L29.0363 29.8521L29.1027 29.1061L30.1402 17.4817L30.248 16.2961L31.0451 7.35913H19.9844V11.7746H26.2062L25.8043 16.2961H19.9844Z" fill="white"/>
</svg>
