<svg width="40" height="40" viewBox="0 0 40 40" fill="none" xmlns="http://www.w3.org/2000/svg">
<path fill-rule="evenodd" clip-rule="evenodd" d="M18.4667 3.11284H13.9419C11.443 3.11284 9.41722 5.16849 9.41722 7.70427C9.41722 10.2401 11.443 12.2957 13.9419 12.2957H18.4667V3.11284ZM18.4667 0H21.5343H26.059C30.2523 0 33.6512 3.4493 33.6512 7.70427C33.6512 10.2152 32.4677 12.4456 30.6354 13.8521C32.4677 15.2587 33.6512 17.4891 33.6512 20C33.6512 24.255 30.2523 27.7043 26.059 27.7043C24.3636 27.7043 22.7979 27.1404 21.5343 26.1873V27.7043V32.2957C21.5343 36.5507 18.1351 40 13.9419 40C9.7488 40 6.34961 36.5507 6.34961 32.2957C6.34961 29.7846 7.53334 27.5544 9.36544 26.1478C7.53334 24.7413 6.34961 22.5109 6.34961 20C6.34961 17.4891 7.53337 15.2587 9.3655 13.8522C7.53337 12.4456 6.34961 10.2152 6.34961 7.70427C6.34961 3.4493 9.7488 0 13.9419 0H18.4667ZM21.5343 3.11284V12.2957H26.059C28.558 12.2957 30.5836 10.2401 30.5836 7.70427C30.5836 5.16849 28.558 3.11284 26.059 3.11284H21.5343ZM13.9419 24.5914H18.4667V20.0118V20V19.9882V15.4086H13.9419C11.443 15.4086 9.41722 17.4642 9.41722 20C9.41722 22.5297 11.4333 24.5816 13.924 24.5914L13.9419 24.5914ZM9.41722 32.2957C9.41722 29.7659 11.4333 27.7141 13.924 27.7043L13.9419 27.7043H18.4667V32.2957C18.4667 34.8314 16.4409 36.8872 13.9419 36.8872C11.443 36.8872 9.41722 34.8314 9.41722 32.2957ZM21.5343 19.9909C21.5392 17.4593 23.5631 15.4086 26.059 15.4086C28.558 15.4086 30.5836 17.4642 30.5836 20C30.5836 22.5358 28.558 24.5915 26.059 24.5915C23.5631 24.5915 21.5392 22.5407 21.5343 20.0092V19.9909Z" fill="white"/>
</svg>
