<svg width="40" height="40" viewBox="0 0 40 40" fill="none" xmlns="http://www.w3.org/2000/svg">
<g clip-path="url(#clip0_3059_4318)">
<path d="M12.9703 40.0001C16.6783 40.0001 19.6877 37.0134 19.6877 33.3334V26.6667H12.9703C9.26233 26.6667 6.25293 29.6534 6.25293 33.3334C6.25293 37.0134 9.26233 40.0001 12.9703 40.0001Z" fill="#0ACF83"/>
<path d="M6.25293 19.9999C6.25293 16.3199 9.26233 13.3333 12.9703 13.3333H19.6877V26.6666H12.9703C9.26233 26.6666 6.25293 23.6799 6.25293 19.9999Z" fill="#A259FF"/>
<path d="M6.25293 6.66667C6.25293 2.98667 9.26233 0 12.9703 0H19.6877V13.3333H12.9703C9.26233 13.3333 6.25293 10.3467 6.25293 6.66667Z" fill="#F24E1E"/>
<path d="M19.6875 0H26.4049C30.1129 0 33.1223 2.98667 33.1223 6.66667C33.1223 10.3467 30.1129 13.3333 26.4049 13.3333H19.6875V0Z" fill="#FF7262"/>
<path d="M33.1223 19.9999C33.1223 23.6799 30.1129 26.6666 26.4049 26.6666C22.6969 26.6666 19.6875 23.6799 19.6875 19.9999C19.6875 16.3199 22.6969 13.3333 26.4049 13.3333C30.1129 13.3333 33.1223 16.3199 33.1223 19.9999Z" fill="#1ABCFE"/>
</g>
<defs>
<clipPath id="clip0_3059_4318">
<rect width="40" height="40" fill="white"/>
</clipPath>
</defs>
</svg>
