<svg width="40" height="40" viewBox="0 0 40 40" fill="none" xmlns="http://www.w3.org/2000/svg">
<path d="M6.7738 21.4819H7.5928L5.96333 27.5457H5.1614L3.84759 23.5484H3.81346L2.49965 27.5457H1.69771L0 21.4819H0.818997L2.10721 26.25H2.14134L3.46368 22.295H4.19737L5.51971 26.25H5.55383L6.7738 21.4819Z" fill="white"/>
<path d="M7.51953 25.4707C7.51953 24.8328 7.72144 24.3049 8.12525 23.887C8.53475 23.4692 9.04947 23.2603 9.6694 23.2603C10.2893 23.2603 10.8012 23.4692 11.205 23.887C11.6145 24.3049 11.8193 24.8328 11.8193 25.4707C11.8193 26.1143 11.6145 26.6422 11.205 27.0544C10.8011 27.4723 10.2892 27.6812 9.6694 27.6811C9.04958 27.6809 8.53486 27.4719 8.12525 27.0538C7.72132 26.6361 7.51942 26.1082 7.51953 25.4701M8.30441 25.4701C8.30441 25.9163 8.43522 26.2776 8.69684 26.5542C8.95847 26.8307 9.28265 26.969 9.6694 26.969C10.0562 26.969 10.3803 26.8307 10.642 26.5542C10.9036 26.2776 11.0344 25.9163 11.0344 25.4701C11.0344 25.0298 10.9036 24.6712 10.642 24.3946C10.375 24.1124 10.0508 23.9712 9.6694 23.9711C9.28799 23.971 8.96369 24.1123 8.6965 24.3951C8.43475 24.6716 8.30394 25.0302 8.30406 25.4707" fill="white"/>
<path d="M13.1599 27.5457H12.375V23.3959H13.1257V24.0734H13.1606C13.2402 23.8532 13.4037 23.6655 13.6512 23.5102C13.8987 23.3548 14.1418 23.2772 14.3805 23.2773C14.6079 23.2773 14.8013 23.3112 14.9607 23.379L14.7211 24.1331C14.6243 24.0936 14.4707 24.0739 14.2604 24.0738C13.9646 24.0738 13.7073 24.1923 13.4884 24.4295C13.2695 24.6666 13.16 24.9431 13.1599 25.2591V27.5457Z" fill="white"/>
<path d="M19.0012 27.5457H18.0542L16.7489 25.5894L16.1091 26.2161V27.5457H15.3242V21.4819H16.1091V25.2168L17.9177 23.3959H18.9244V23.4298L17.2949 25.0389L19.0012 27.5118V27.5457Z" fill="white"/>
<path d="M22.396 26.3938C22.396 26.7553 22.2368 27.0601 21.9183 27.3085C21.5998 27.5568 21.1988 27.681 20.7154 27.6811C20.2945 27.6811 19.9248 27.5724 19.6063 27.3549C19.2944 27.1458 19.0558 26.8454 18.9238 26.4954L19.6234 26.199C19.7258 26.4476 19.8751 26.6409 20.0714 26.7791C20.2584 26.9145 20.4841 26.9871 20.7156 26.9865C20.9659 26.9865 21.1749 26.9328 21.3423 26.8256C21.5098 26.7183 21.5937 26.5912 21.5939 26.4444C21.5939 26.1794 21.3892 25.9846 20.9797 25.8601L20.2631 25.6822C19.45 25.479 19.0434 25.0893 19.0433 24.5132C19.0433 24.135 19.1983 23.8315 19.5083 23.6027C19.8183 23.3738 20.215 23.2595 20.6983 23.2598C21.0681 23.2598 21.4023 23.3473 21.7008 23.5223C21.9994 23.6973 22.2083 23.9316 22.3276 24.2252L21.6282 24.5132C21.548 24.3375 21.4116 24.1931 21.2401 24.1023C21.0558 24.0023 20.8486 23.9513 20.6386 23.9542C20.4442 23.9513 20.2532 24.0043 20.0884 24.1067C19.9259 24.2083 19.8447 24.3325 19.8447 24.4793C19.8447 24.7164 20.0693 24.8858 20.5186 24.9874L21.15 25.1483C21.9803 25.3516 22.3955 25.7664 22.3955 26.3928" fill="white"/>
<path d="M25.1217 27.6811C24.8146 27.6811 24.5345 27.6161 24.2815 27.4863C24.0284 27.3564 23.8336 27.1842 23.697 26.9697H23.6622L23.697 27.5456V29.3749H22.9121V23.3958H23.6629V23.9716H23.6977C23.8342 23.7572 24.029 23.585 24.2822 23.455C24.5353 23.3251 24.8154 23.2601 25.1224 23.2603C25.674 23.2603 26.1403 23.4748 26.5215 23.9039C26.914 24.3388 27.1102 24.861 27.1102 25.4707C27.1102 26.0862 26.914 26.6084 26.5215 27.0374C26.1405 27.4665 25.6741 27.6811 25.1224 27.6811M24.9944 26.9697C25.3698 26.9697 25.6855 26.8285 25.9414 26.5462C26.1968 26.2697 26.3244 25.9112 26.3244 25.4707C26.3244 25.036 26.1968 24.6775 25.9414 24.3951C25.686 24.1127 25.3704 23.9715 24.9944 23.9716C24.6134 23.9716 24.2949 24.1128 24.0389 24.3951C23.7886 24.6775 23.6634 25.036 23.6636 25.4707C23.6636 25.911 23.7887 26.2724 24.0389 26.5547C24.2943 26.8312 24.6128 26.9695 24.9944 26.9695" fill="white"/>
<path d="M29.26 23.2604C29.8403 23.2604 30.2982 23.4143 30.6335 23.7219C30.9688 24.0295 31.1366 24.4516 31.1368 24.9881V27.5461H30.3861V26.9698H30.3513C30.0271 27.4441 29.5948 27.6812 29.0545 27.6812C28.5938 27.6812 28.2085 27.5457 27.8985 27.2747C27.5884 27.0037 27.4335 26.665 27.4336 26.2584C27.4336 25.8295 27.5971 25.4879 27.9241 25.2337C28.251 24.9795 28.6876 24.8525 29.2337 24.8526C29.6999 24.8526 30.0838 24.9373 30.3854 25.1067V24.9281C30.3854 24.6571 30.2773 24.427 30.0612 24.2378C29.8531 24.0517 29.582 23.9505 29.3019 23.9542C28.8639 23.9542 28.5169 24.1377 28.2611 24.5047L27.5701 24.0726C27.951 23.531 28.514 23.2603 29.2589 23.2603M28.2448 26.2762C28.2448 26.4795 28.3315 26.6489 28.5049 26.7844C28.6783 26.9199 28.8814 26.9876 29.1142 26.9876C29.444 26.9876 29.7383 26.8663 29.9971 26.6235C30.256 26.3807 30.3854 26.0956 30.3854 25.7681C30.1407 25.5763 29.7995 25.4803 29.3617 25.4802C29.043 25.4802 28.7771 25.5564 28.5639 25.7088C28.3507 25.8613 28.2443 26.0504 28.2448 26.2762Z" fill="white"/>
<path d="M33.7983 27.6811C33.1783 27.6811 32.6635 27.4722 32.2542 27.0544C31.8502 26.6254 31.6483 26.0975 31.6484 25.4707C31.6484 24.8328 31.8503 24.3049 32.2542 23.887C32.6637 23.4692 33.1784 23.2603 33.7983 23.2603C34.2249 23.2603 34.5974 23.3661 34.9159 23.5778C35.2344 23.7894 35.4733 24.0816 35.6325 24.4544L34.9166 24.7508C34.6948 24.2314 34.3052 23.9716 33.7478 23.9716C33.3895 23.9716 33.0795 24.1157 32.8179 24.4037C32.562 24.6918 32.434 25.0475 32.434 25.4708C32.434 25.8942 32.562 26.2499 32.8179 26.5379C33.0794 26.826 33.3894 26.97 33.7478 26.97C34.3223 26.97 34.7261 26.7103 34.9593 26.1909L35.6588 26.4873C35.5052 26.8599 35.2649 27.1521 34.9378 27.3637C34.6107 27.5754 34.2311 27.6813 33.799 27.6814" fill="white"/>
<path d="M38.022 27.6811C37.4077 27.6811 36.9016 27.4722 36.5034 27.0544C36.1053 26.6366 35.9063 26.1087 35.9062 25.4707C35.9062 24.8384 36.0996 24.3119 36.4864 23.8911C36.8731 23.4703 37.3679 23.26 37.9708 23.2603C38.5906 23.2603 39.0839 23.4592 39.4507 23.8572C39.8175 24.2552 40.0008 24.8128 40.0005 25.5299L39.992 25.6146H36.7082C36.7198 26.0211 36.8563 26.3486 37.1177 26.597C37.3791 26.8455 37.6919 26.9697 38.0561 26.9697C38.5565 26.9697 38.9489 26.7212 39.2334 26.2244L39.933 26.5632C39.7545 26.9036 39.4842 27.188 39.1523 27.3846C38.8195 27.5821 38.4428 27.6809 38.022 27.6811ZM36.7684 24.971H39.1648C39.1416 24.6829 39.0236 24.4444 38.8107 24.2553C38.5978 24.0662 38.3121 23.9716 37.9534 23.9716C37.6575 23.9716 37.403 24.062 37.1898 24.2427C36.9765 24.4233 36.8358 24.6661 36.7676 24.971" fill="white"/>
<path d="M9.79736 15.3217V14.3839H12.9591C12.9942 14.5735 13.0113 14.7661 13.0102 14.9589C13.0102 15.662 12.8164 16.5327 12.1919 17.1522C11.5847 17.7801 10.8091 18.1151 9.78047 18.1151C7.87522 18.1151 6.27344 16.5746 6.27344 14.6825C6.27344 12.7905 7.87522 11.25 9.78082 11.25C10.835 11.25 11.5851 11.6603 12.1501 12.1961L11.4839 12.8574C11.0788 12.4808 10.5312 12.1876 9.78082 12.1876C8.38971 12.1876 7.30206 13.301 7.30206 14.6825C7.30206 16.064 8.38971 17.1783 9.78082 17.1783C10.683 17.1783 11.1974 16.8183 11.5261 16.4918C11.794 16.2258 11.9706 15.8442 12.039 15.3225L9.79736 15.3217Z" fill="#4285F4"/>
<path d="M17.8277 15.9048C17.8277 17.1783 16.8241 18.115 15.5935 18.115C14.3629 18.115 13.3594 17.1783 13.3594 15.9048C13.3594 14.6239 14.3628 13.6946 15.5939 13.6946C16.825 13.6946 17.828 14.6239 17.828 15.9048M16.85 15.9048C16.85 15.1098 16.2684 14.5653 15.5939 14.5653C14.9194 14.5653 14.3375 15.1094 14.3375 15.9048C14.3375 16.6917 14.9192 17.2443 15.5939 17.2443C16.2685 17.2443 16.85 16.6912 16.85 15.9048Z" fill="#EA4335"/>
<path d="M22.7009 15.9048C22.7009 17.1783 21.6982 18.115 20.4667 18.115C19.2353 18.115 18.2324 17.1783 18.2324 15.9048C18.2324 14.6239 19.2356 13.6946 20.4667 13.6946C21.6978 13.6946 22.7009 14.6239 22.7009 15.9048ZM21.7229 15.9048C21.7229 15.1098 21.1412 14.5653 20.4667 14.5653C19.7922 14.5653 19.2104 15.1094 19.2104 15.9048C19.2104 16.6917 19.7921 17.2443 20.4667 17.2443C21.1414 17.2443 21.7229 16.6912 21.7229 15.9048Z" fill="#FBBC04"/>
<path d="M27.3732 13.8285V17.7968C27.3732 19.4295 26.4036 20.0992 25.2569 20.0992C24.1775 20.0992 23.5284 19.3792 23.284 18.7932L24.136 18.4415C24.2877 18.8015 24.6584 19.2285 25.2575 19.2285C25.991 19.2285 26.4463 18.7763 26.4463 17.9308V17.6128H26.4125C26.1933 17.8807 25.7718 18.115 25.2406 18.115C24.1275 18.115 23.1074 17.1522 23.1074 15.9133C23.1074 14.6657 24.1275 13.6946 25.2406 13.6946C25.7718 13.6946 26.1933 13.9289 26.4125 14.1885H26.4463V13.8285H27.3732ZM26.5131 15.9133C26.5131 15.1347 25.9908 14.5652 25.3243 14.5652C24.6498 14.5652 24.0849 15.1345 24.0849 15.9133C24.0849 16.6834 24.6498 17.2441 25.3243 17.2441C25.9905 17.2441 26.5131 16.6833 26.5131 15.9133Z" fill="#4285F4"/>
<path d="M29.0287 11.5061H28.0508V17.9811H29.0287V11.5061Z" fill="#34A853"/>
<path d="M32.8072 16.6331L33.566 17.1354C33.3222 17.4954 32.7313 18.115 31.711 18.115C30.4463 18.115 29.502 17.1439 29.502 15.9048C29.502 14.5913 30.4548 13.6946 31.6013 13.6946C32.7565 13.6946 33.3213 14.6072 33.5069 15.1011L33.6081 15.3523L30.6309 16.5746C30.8586 17.0182 31.2127 17.2443 31.7103 17.2443C32.2079 17.2443 32.5535 17.0023 32.8072 16.6331ZM30.4716 15.8381L32.4614 15.0178C32.3517 14.7413 32.023 14.5491 31.6351 14.5491C31.1377 14.5491 30.4463 14.9845 30.4716 15.8384" fill="#EA4335"/>
</svg>
