<svg width="40" height="40" viewBox="0 0 40 40" fill="none" xmlns="http://www.w3.org/2000/svg">
<g clip-path="url(#clip0_3059_4389)">
<path d="M26.6012 12.7841L30.0782 9.30712L30.3099 7.84305C23.9738 2.08165 13.9018 2.73493 8.19008 9.20618C6.60352 11.0035 5.42648 13.2443 4.79883 15.5582L6.04414 15.3827L12.998 14.236L13.5349 13.687C16.6282 10.2898 21.8584 9.83274 25.4299 12.7232L26.6012 12.7841Z" fill="#EA4335"/>
<path d="M35.0323 15.4561C34.2331 12.5129 32.5923 9.86717 30.3109 7.84326L25.4309 12.7233C27.4916 14.407 28.6655 16.9436 28.6152 19.604V20.4703C31.0137 20.4703 32.9584 22.4148 32.9584 24.8134C32.9584 27.2122 31.0137 29.108 28.6152 29.108H19.9166L19.0625 30.0351V35.2445L19.9166 36.0619H28.6152C34.8542 36.1104 39.9514 31.1409 40 24.9019C40.0294 21.1201 38.1648 17.5748 35.0323 15.4561Z" fill="#4285F4"/>
<path d="M11.23 36.0619H19.9164V29.1078H11.23C10.6111 29.1077 10.0117 28.9747 9.44891 28.7175L8.21656 29.0957L4.71516 32.5727L4.41016 33.7561C6.37375 35.2388 8.76953 36.0725 11.23 36.0619Z" fill="#34A853"/>
<path d="M11.2297 13.504C4.99052 13.5412 -0.0369825 18.6293 0.000204978 24.8684C0.0209862 28.3524 1.64817 31.6321 4.40989 33.756L9.44864 28.7174C7.26255 27.7298 6.29114 25.1571 7.2788 22.9712C8.2663 20.7852 10.8391 19.8138 13.0249 20.8013C13.9882 21.2365 14.7596 22.008 15.1947 22.9712L20.2335 17.9326C18.0896 15.1299 14.7583 13.4913 11.2297 13.504Z" fill="#FBBC05"/>
</g>
<defs>
<clipPath id="clip0_3059_4389">
<rect width="40" height="40" fill="white"/>
</clipPath>
</defs>
</svg>
