<svg width="40" height="40" viewBox="0 0 40 40" fill="none" xmlns="http://www.w3.org/2000/svg">
<path d="M34.1342 7.84106L31.559 36.6898L19.9834 39.8989L8.43971 36.6943L5.86719 7.84106H34.1342Z" fill="#E44D26"/>
<path d="M20 37.446L29.3537 34.8528L31.5542 10.2002H20V37.446Z" fill="#F16529"/>
<path d="M14.9943 17.2777H20.0004V13.739H11.127L11.2116 14.6884L12.0814 24.4402H20.0004V20.9015H15.3178L14.9943 17.2777ZM15.7919 26.2096H12.2395L12.7353 31.7659L19.9841 33.7781L20.0004 33.7737V30.0919L19.9849 30.096L16.0439 29.0319L15.7919 26.2096Z" fill="#EBEBEB"/>
<path d="M8.49609 0H10.2944V1.77673H11.9395V0H13.738V5.38039H11.9396V3.57873H10.2945V5.38039H8.4962L8.49609 0ZM16.1027 1.78427H14.5198V0H19.4853V1.78427H17.9014V5.38039H16.1031V1.78427H16.1027ZM20.2734 0H22.1485L23.302 1.89053L24.4543 0H26.3302V5.38039H24.5392V2.71357L23.302 4.62659H23.2709L22.0329 2.71357V5.38039H20.2734V0ZM27.2252 0H29.0241V3.60199H31.553V5.38039H27.2251V0H27.2252Z" fill="white"/>
<path d="M19.9884 24.4402H24.346L23.9351 29.0297L19.9883 30.0949V33.7765L27.2429 31.7659L27.2961 31.168L28.1278 21.8517L28.2141 20.9015H19.9884V24.4402ZM19.9884 17.2691V17.2777H28.5361L28.607 16.4824L28.7683 14.6884L28.8529 13.739H19.9884V17.2691Z" fill="white"/>
</svg>
