<svg width="40" height="40" viewBox="0 0 40 40" fill="none" xmlns="http://www.w3.org/2000/svg">
<g clip-path="url(#clip0_3059_4410)">
<path d="M19.8015 7.4117C17.9532 8.71162 15.8584 10.185 14.736 12.6226C12.7864 16.8753 18.7252 21.5142 18.979 21.7096C19.038 21.755 19.1086 21.7776 19.179 21.7776C19.2538 21.7776 19.3286 21.7521 19.3894 21.7011C19.5073 21.6025 19.5408 21.435 19.47 21.2986C19.4485 21.2572 17.3168 17.1166 17.396 14.1461C17.424 13.1115 18.8719 11.9378 20.4047 10.6952C21.8087 9.55709 23.4001 8.26717 24.3312 6.75818C26.3752 3.4366 24.1034 0.170497 24.0802 0.137841C23.9899 0.0111217 23.8234 -0.0347378 23.6809 0.0276843C23.5387 0.090497 23.4598 0.244326 23.4923 0.396436C23.4969 0.418076 23.9387 2.57793 22.7094 4.80317C22.203 5.72271 21.0901 6.50537 19.8015 7.4117Z" fill="#DB380E"/>
<path d="M27.5884 8.87641C27.7188 8.77821 27.7571 8.59907 27.6782 8.4561C27.5992 8.31313 27.4274 8.25008 27.2747 8.30805C26.9607 8.42742 19.5859 11.2702 19.5859 14.7049C19.5859 17.0727 20.5973 18.3235 21.3359 19.2369C21.6256 19.5952 21.8756 19.9046 21.9581 20.1687C22.1901 20.9299 21.6404 22.3057 21.4092 22.7716C21.3426 22.9055 21.3752 23.0679 21.4886 23.1657C21.5499 23.2186 21.6263 23.2455 21.7029 23.2455C21.7681 23.2455 21.8335 23.2261 21.8901 23.1867C22.0169 23.0986 24.9891 20.9972 24.456 18.4654C24.2574 17.503 23.7845 16.7999 23.3673 16.1794C22.7209 15.2181 22.254 14.5237 22.9623 13.2412C23.7921 11.7452 27.5503 8.90485 27.5884 8.87641Z" fill="#DB380E"/>
<path d="M8.39278 23.2997C8.26638 23.6782 8.32607 24.0537 8.56521 24.3859C9.36466 25.4958 12.1965 26.1069 16.5393 26.1069C16.5395 26.1069 16.5397 26.1069 16.5398 26.1069C17.1283 26.1069 17.7495 26.0954 18.3859 26.0725C25.3293 25.824 27.9046 23.6609 28.0108 23.5689C28.1266 23.4687 28.1575 23.3018 28.0856 23.1668C28.0136 23.0319 27.8583 22.9641 27.71 23.005C25.2646 23.6726 20.6984 23.9096 17.5312 23.9096C13.9872 23.9096 12.1823 23.6543 11.7405 23.4658C11.9672 23.1545 13.3656 22.5985 15.0985 22.2577C15.2641 22.2252 15.378 22.0722 15.3616 21.9042C15.3452 21.7363 15.2041 21.6082 15.0352 21.6082C14.0194 21.6082 8.92529 21.6897 8.39278 23.2997Z" fill="#73A1FB"/>
<path d="M31.6266 21.0718C30.1944 21.0718 28.8364 21.7896 28.7792 21.82C28.6468 21.8909 28.5796 22.0428 28.6159 22.1887C28.6524 22.3344 28.7834 22.4369 28.9337 22.437C28.964 22.437 31.9885 22.4618 32.2624 24.1898C32.5051 25.6806 29.4008 28.0961 28.1841 28.9011C28.0527 28.9881 28.0017 29.156 28.0627 29.3013C28.1147 29.425 28.2351 29.5024 28.3649 29.5024C28.3876 29.5024 28.4105 29.5 28.4333 29.4952C28.7221 29.4334 35.4963 27.9406 34.7801 23.9964C34.3431 21.5792 32.8239 21.0718 31.6266 21.0718Z" fill="#73A1FB"/>
<path d="M26.981 28.4185C27.0046 28.2922 26.952 28.1637 26.8468 28.0898L25.2225 26.9521C25.1433 26.8966 25.0432 26.8792 24.9503 26.9038C24.9333 26.9081 23.2347 27.3547 20.7686 27.6285C19.7899 27.7383 18.6936 27.7962 17.5981 27.7962C15.1327 27.7962 13.5206 27.5065 13.2858 27.294C13.2548 27.2344 13.2646 27.2072 13.2701 27.1922C13.3128 27.0736 13.5414 26.9326 13.6887 26.8769C13.8515 26.8166 13.9392 26.6399 13.8886 26.474C13.8381 26.3078 13.6669 26.2101 13.498 26.2506C11.8687 26.6438 11.0719 27.1937 11.1299 27.8848C11.2329 29.1103 14.0713 29.7393 16.4709 29.9055C16.816 29.9291 17.1892 29.9411 17.5799 29.9411C17.5802 29.9411 17.5803 29.9411 17.5806 29.9411C21.5707 29.9411 26.6861 28.6891 26.7372 28.6764C26.8621 28.6459 26.9573 28.5451 26.981 28.4185Z" fill="#73A1FB"/>
<path d="M14.7349 31.0484C14.8579 30.9684 14.9125 30.8163 14.8688 30.6762C14.8253 30.5362 14.6942 30.4441 14.5471 30.4461C14.3287 30.4519 12.4104 30.5384 12.2761 31.7598C12.2355 32.1248 12.34 32.4583 12.587 32.7508C13.2757 33.5671 15.135 34.0523 18.2699 34.234C18.6407 34.2562 19.0175 34.2674 19.3897 34.2674C23.3753 34.2674 26.0595 33.0195 26.1719 32.9664C26.2809 32.9148 26.3528 32.8077 26.3592 32.6874C26.3656 32.5671 26.3055 32.453 26.2027 32.3901L24.15 31.1369C24.0787 31.0935 23.9935 31.0791 23.9123 31.0958C23.8993 31.0985 22.5959 31.3688 20.629 31.6358C20.2568 31.6865 19.7907 31.7122 19.2438 31.7122C17.2789 31.7122 15.0935 31.3912 14.6743 31.1809C14.6682 31.1417 14.676 31.0919 14.7349 31.0484Z" fill="#73A1FB"/>
<path d="M17.5325 38.0352C26.6618 38.0275 31.5616 36.404 32.5055 35.3823C32.8396 35.0209 32.8757 34.6787 32.8474 34.4552C32.7772 33.9052 32.2762 33.5685 32.2194 33.5319C32.0824 33.4438 31.8984 33.4668 31.7916 33.5901C31.6849 33.7134 31.6824 33.8936 31.7895 34.0168C31.847 34.0908 31.8803 34.2148 31.712 34.3833C31.3346 34.7358 27.5287 35.8055 21.1919 36.1269C20.3239 36.172 19.4134 36.195 18.486 36.1951C12.8123 36.1951 8.66 35.4179 8.11492 34.9651C8.325 34.6633 9.79375 34.181 11.3557 33.9082C11.5317 33.8775 11.6506 33.7116 11.6234 33.535C11.5961 33.3586 11.4334 33.2371 11.2555 33.2601C11.2114 33.2661 11.0619 33.275 10.8888 33.2857C8.31156 33.443 5.33334 33.7937 5.17795 35.1216C5.13076 35.5262 5.251 35.8936 5.53545 36.2133C6.23147 36.9953 8.23203 38.0351 17.5322 38.0351C17.5324 38.0352 17.5324 38.0352 17.5325 38.0352Z" fill="#73A1FB"/>
<path d="M34.2974 35.6703C34.1684 35.6106 34.0159 35.6407 33.9196 35.7446C33.9063 35.7591 32.5337 37.1943 28.4068 38.0371C26.8269 38.3537 23.8612 38.5142 19.5922 38.5142C15.3153 38.5142 11.2455 38.346 11.2049 38.3442C11.0349 38.336 10.8895 38.4596 10.8664 38.6269C10.8432 38.7941 10.951 38.9517 11.1152 38.9908C11.1575 39.0008 15.4226 40 21.2542 40C24.0512 40 26.7729 39.7729 29.3439 39.3246C34.1378 38.4842 34.4734 36.1072 34.4853 36.0064C34.5021 35.8656 34.4263 35.7299 34.2974 35.6703Z" fill="#73A1FB"/>
</g>
<defs>
<clipPath id="clip0_3059_4410">
<rect width="40" height="40" fill="white"/>
</clipPath>
</defs>
</svg>
