<svg width="40" height="40" viewBox="0 0 40 40" fill="none" xmlns="http://www.w3.org/2000/svg">
<path d="M36.7188 0H3.28125C1.46907 0 0 1.46907 0 3.28125V36.7188C0 38.5309 1.46907 40 3.28125 40H36.7188C38.5309 40 40 38.5309 40 36.7188V3.28125C40 1.46907 38.5309 0 36.7188 0Z" fill="url(#paint0_linear_3059_4328)"/>
<path d="M30.4792 7.88694C31.5764 8.04937 32.3337 9.07124 32.1718 10.1688C32.0098 11.2669 30.9892 12.0261 29.8917 11.8636C27.9483 11.5758 25.0367 14.6003 21.7771 20.8192C17.6157 28.7584 13.7424 32.5411 9.6646 32.2393C8.55835 32.1573 7.72866 31.1934 7.81022 30.0868C7.89186 28.98 8.85436 28.1484 9.96077 28.2303C11.9744 28.3794 14.9323 25.226 18.2211 18.9514C22.409 10.9616 26.3349 7.27327 30.4792 7.88694Z" fill="white"/>
<defs>
<linearGradient id="paint0_linear_3059_4328" x1="-5.97435e-05" y1="1333.04" x2="12047.5" y2="9374.5" gradientUnits="userSpaceOnUse">
<stop stop-color="#2BEAED"/>
<stop offset="1" stop-color="#0FCCCE"/>
</linearGradient>
</defs>
</svg>
