<svg width="40" height="40" viewBox="0 0 40 40" fill="none" xmlns="http://www.w3.org/2000/svg">
<path d="M27.9003 15.3125H38.2324C39.2085 15.3125 39.9998 16.11 39.9998 17.0937V26.5784C39.9998 30.194 37.0916 33.125 33.504 33.125H33.4733C29.8858 33.1255 26.9771 30.1949 26.9766 26.5794C26.9766 26.5791 26.9766 26.5787 26.9766 26.5784V16.2434C26.9766 15.7293 27.3901 15.3125 27.9003 15.3125Z" fill="#5059C9"/>
<path d="M34.8833 13.4375C37.1952 13.4375 39.0694 11.5487 39.0694 9.21875C39.0694 6.8888 37.1952 5 34.8833 5C32.5714 5 30.6973 6.8888 30.6973 9.21875C30.6973 11.5487 32.5714 13.4375 34.8833 13.4375Z" fill="#5059C9"/>
<path d="M21.861 13.4375C25.2004 13.4375 27.9075 10.7092 27.9075 7.34376C27.9075 3.97827 25.2004 1.25 21.861 1.25C18.5216 1.25 15.8145 3.97827 15.8145 7.34376C15.8145 10.7092 18.5216 13.4375 21.861 13.4375Z" fill="#7B83EB"/>
<path d="M29.9231 15.3125H12.8682C11.9037 15.3366 11.1407 16.1432 11.1631 17.1153V27.9331C11.0284 33.7665 15.6077 38.6073 21.3956 38.75C27.1836 38.6073 31.7629 33.7665 31.6282 27.9331V17.1153C31.6505 16.1432 30.8876 15.3366 29.9231 15.3125Z" fill="#7B83EB"/>
<path opacity="0.1" d="M22.3254 15.3125V30.4719C22.3208 31.167 21.9028 31.7916 21.2649 32.0562C21.0619 32.1428 20.8436 32.1874 20.6231 32.1875H11.9812C11.8603 31.8781 11.7487 31.5688 11.6556 31.25C11.33 30.1743 11.1638 29.056 11.1626 27.9313V17.1125C11.1402 16.142 11.902 15.3366 12.8649 15.3125H22.3254Z" fill="black"/>
<path opacity="0.2" d="M21.3952 15.3125V31.4094C21.3951 31.6316 21.3508 31.8516 21.2649 32.0562C21.0023 32.6991 20.3826 33.1203 19.6928 33.125H12.4184C12.2603 32.8156 12.1114 32.5062 11.9812 32.1875C11.851 31.8688 11.7487 31.5688 11.6556 31.25C11.33 30.1743 11.1638 29.056 11.1626 27.9313V17.1125C11.1402 16.142 11.902 15.3366 12.8649 15.3125H21.3952Z" fill="black"/>
<path opacity="0.2" d="M21.3952 15.3125V29.5344C21.3881 30.4789 20.6301 31.2429 19.6928 31.25H11.6556C11.33 30.1743 11.1638 29.056 11.1626 27.9313V17.1125C11.1402 16.142 11.902 15.3366 12.8649 15.3125H21.3952Z" fill="black"/>
<path opacity="0.2" d="M20.4649 15.3125V29.5344C20.4578 30.4789 19.6998 31.2429 18.7626 31.25H11.6556C11.33 30.1743 11.1638 29.056 11.1626 27.9313V17.1125C11.1402 16.142 11.902 15.3366 12.8649 15.3125H20.4649Z" fill="black"/>
<path opacity="0.1" d="M22.3247 10.4656V13.4187C22.1665 13.4281 22.0177 13.4375 21.8595 13.4375C21.7014 13.4375 21.5526 13.4281 21.3944 13.4187C21.0804 13.3977 20.769 13.3475 20.4642 13.2687C18.5805 12.8192 17.0242 11.4877 16.2781 9.68749C16.1498 9.38517 16.0501 9.07126 15.9805 8.75H20.6223C21.561 8.75358 22.3211 9.51958 22.3247 10.4656Z" fill="black"/>
<path opacity="0.2" d="M21.3956 11.4031V13.4187C21.0816 13.3977 20.7702 13.3475 20.4653 13.2687C18.5816 12.8192 17.0254 11.4878 16.2793 9.6875H19.6932C20.6319 9.69108 21.392 10.4571 21.3956 11.4031Z" fill="black"/>
<path opacity="0.2" d="M21.3956 11.4031V13.4187C21.0816 13.3977 20.7702 13.3475 20.4653 13.2687C18.5816 12.8192 17.0254 11.4878 16.2793 9.6875H19.6932C20.6319 9.69108 21.392 10.4571 21.3956 11.4031Z" fill="black"/>
<path opacity="0.2" d="M20.4653 11.4031V13.2687C18.5816 12.8192 17.0254 11.4878 16.2793 9.6875H18.763C19.7017 9.6911 20.4618 10.4571 20.4653 11.4031Z" fill="black"/>
<path d="M1.70511 9.6875H18.76C19.7017 9.6875 20.4651 10.4569 20.4651 11.4059V28.5941C20.4651 29.5431 19.7017 30.3125 18.76 30.3125H1.70511C0.763395 30.3125 0 29.5431 0 28.5941V11.4059C0 10.4569 0.763413 9.6875 1.70511 9.6875Z" fill="url(#paint0_linear_3059_4356)"/>
<path d="M14.721 16.2293H11.3117V25.5856H9.13958V16.2293H5.74609V14.4143H14.721V16.2293Z" fill="white"/>
<defs>
<linearGradient id="paint0_linear_3059_4356" x1="3.55521" y1="8.34475" x2="17.0664" y2="31.5642" gradientUnits="userSpaceOnUse">
<stop stop-color="#5A62C3"/>
<stop offset="0.5" stop-color="#4D55BD"/>
<stop offset="1" stop-color="#3940AB"/>
</linearGradient>
</defs>
</svg>
