<svg width="40" height="40" viewBox="0 0 40 40" fill="none" xmlns="http://www.w3.org/2000/svg">
<path d="M12.2434 28.5289H11.1605C11.1222 26.701 11.0168 24.9826 10.8443 23.3724H10.8347L9.18595 28.5289H8.36147L6.72256 23.3724H6.71314C6.59156 24.9184 6.51497 26.6372 6.48317 28.5289H5.49609C5.55971 26.2285 5.71958 24.0719 5.97509 22.0588H7.31727L8.87939 26.813H8.88901L10.4608 22.0588H11.745C12.0262 24.4168 12.1924 26.5736 12.2434 28.5289ZM16.9398 23.7553C16.4989 26.148 15.9172 27.8865 15.1952 28.9717C14.6327 29.8071 14.0165 30.2252 13.3454 30.2252C13.1665 30.2252 12.9457 30.1712 12.6841 30.064V29.4871C12.812 29.5055 12.962 29.516 13.1345 29.516C13.4479 29.516 13.6999 29.4298 13.892 29.2569C14.1217 29.0464 14.2366 28.8097 14.2366 28.5479C14.2366 28.3684 14.1471 28.0014 13.9683 27.4456L12.78 23.7551H13.8438L14.6968 26.5152C14.8885 27.1419 14.9684 27.5795 14.9364 27.8287C15.4028 26.583 15.7286 25.2247 15.9142 23.7549H16.9398V23.7553Z" fill="#5D87A1"/>
<path d="M31.3552 28.529H28.2791V22.0589H29.3138V27.7325H31.3552V28.529ZM27.4738 28.6853L26.2844 28.0983C26.3899 28.0117 26.4907 27.9179 26.5815 27.8093C27.0871 27.2155 27.3393 26.3372 27.3393 25.1739C27.3393 23.0334 26.4993 21.9626 24.8188 21.9626C23.9947 21.9626 23.3519 22.2343 22.8921 22.7777C22.387 23.372 22.1348 24.2471 22.1348 25.4041C22.1348 26.5414 22.3583 27.3757 22.8055 27.905C23.2146 28.3844 23.8313 28.6244 24.656 28.6244C24.9636 28.6244 25.2459 28.5867 25.503 28.5108L27.0515 29.4123L27.4738 28.6853ZM23.6207 27.2343C23.3588 26.8128 23.2278 26.1361 23.2278 25.203C23.2278 23.5739 23.7227 22.7585 24.7135 22.7585C25.2314 22.7585 25.611 22.9535 25.8537 23.3427C26.1153 23.7648 26.2469 24.4355 26.2469 25.3556C26.2469 26.998 25.7516 27.8194 24.7614 27.8194C24.2433 27.8196 23.8637 27.6252 23.6207 27.2343ZM21.6839 26.7356C21.6839 27.2843 21.4825 27.7344 21.0803 28.087C20.6777 28.4382 20.1378 28.6141 19.4613 28.6141C18.8285 28.6141 18.215 28.412 17.6211 28.0098L17.8992 27.4542C18.4102 27.7101 18.8729 27.8374 19.2883 27.8374C19.6781 27.8374 19.9828 27.7509 20.2038 27.5796C20.4245 27.4076 20.5562 27.1663 20.5562 26.8612C20.5562 26.4768 20.2881 26.1482 19.7963 25.8731C19.3429 25.624 18.4359 25.1034 18.4359 25.1034C17.9444 24.7452 17.6983 24.3605 17.6983 23.7269C17.6983 23.2025 17.8818 22.7792 18.2491 22.4571C18.6167 22.1338 19.0911 21.9727 19.6727 21.9727C20.2732 21.9727 20.8192 22.1336 21.311 22.4521L21.0615 23.0079C20.6409 22.8292 20.2257 22.7398 19.8162 22.7398C19.4845 22.7398 19.2284 22.8196 19.0503 22.9796C18.8708 23.1391 18.7601 23.3431 18.7601 23.5934C18.7601 23.9759 19.0338 24.3086 19.5389 24.5893C19.9985 24.8387 20.928 25.3683 20.928 25.3683C21.4321 25.726 21.6839 26.107 21.6839 26.7356Z" fill="#F8981D"/>
<path d="M32.655 19.8918C32.0293 19.8759 31.5449 19.9389 31.1383 20.1109C31.0209 20.1578 30.8342 20.1578 30.8179 20.3061C30.8813 20.3689 30.8886 20.4702 30.9437 20.5568C31.0374 20.7131 31.2009 20.9234 31.3501 21.0331C31.5139 21.1586 31.6784 21.2829 31.8508 21.3924C32.1549 21.5805 32.4995 21.69 32.7958 21.8774C32.9685 21.9865 33.1401 22.1275 33.3129 22.2449C33.3979 22.3075 33.4523 22.409 33.5625 22.4481V22.4242C33.5073 22.3539 33.4916 22.2522 33.4374 22.174L33.2026 21.9476C32.9758 21.6429 32.6939 21.3769 32.3899 21.1584C32.1396 20.986 31.5922 20.7516 31.4907 20.4633L31.4748 20.4474C31.6468 20.4313 31.8508 20.3689 32.0142 20.321C32.2802 20.2509 32.5227 20.2668 32.7956 20.1967C32.9212 20.1653 33.0457 20.126 33.1717 20.0872V20.0167C33.0302 19.8759 32.9293 19.6888 32.7805 19.5557C32.3825 19.2119 31.9439 18.8756 31.4907 18.5942C31.2479 18.4374 30.9357 18.3366 30.6773 18.2033C30.5842 18.1562 30.4272 18.133 30.3724 18.0547C30.2322 17.8827 30.1533 17.6563 30.0516 17.4527C29.8256 17.0231 29.6061 16.5464 29.4111 16.0921C29.27 15.7874 29.1842 15.4831 29.0122 15.2013C28.2066 13.8725 27.3317 13.0677 25.987 12.2777C25.698 12.1132 25.3542 12.0431 24.9869 11.9569L24.4004 11.9259C24.2752 11.8711 24.1499 11.7223 24.0407 11.652C23.5945 11.3708 22.4459 10.7612 22.1178 11.566C21.9064 12.0747 22.4304 12.5749 22.6104 12.8329C22.7432 13.012 22.9155 13.2158 23.0084 13.4192C23.0634 13.5521 23.0789 13.6931 23.1339 13.8335C23.2591 14.1776 23.376 14.5603 23.5405 14.8813C23.6263 15.0449 23.7199 15.217 23.8295 15.3651C23.8923 15.4517 24.0015 15.49 24.0254 15.6313C23.9164 15.787 23.9078 16.022 23.8452 16.2174C23.564 17.1007 23.6738 18.1949 24.0725 18.844C24.1972 19.0395 24.4947 19.4697 24.8928 19.3048C25.2451 19.1642 25.1671 18.7187 25.2684 18.328C25.2916 18.2336 25.2763 18.1717 25.3232 18.1097V18.125C25.4322 18.3437 25.5423 18.5544 25.6434 18.7737C25.8859 19.1565 26.3082 19.5553 26.6599 19.8204C26.8472 19.9619 26.9956 20.2038 27.2302 20.2902V20.2668H27.2147C27.1672 20.1967 27.0977 20.1653 27.0354 20.1109C26.8943 19.9701 26.7382 19.798 26.6288 19.6419C26.3011 19.204 26.011 18.7191 25.7536 18.2188C25.6277 17.976 25.5191 17.7107 25.4176 17.4684C25.3703 17.3748 25.3703 17.2338 25.2918 17.1867C25.1742 17.3585 25.0028 17.5073 24.917 17.7178C24.7682 18.0545 24.7528 18.4686 24.6975 18.8993L24.6668 18.9143C24.4177 18.8518 24.3311 18.5942 24.2365 18.3755C24.0024 17.8201 23.963 16.9287 24.1662 16.2879C24.2206 16.1241 24.456 15.6081 24.3621 15.452C24.315 15.3023 24.1585 15.2172 24.0727 15.0994C23.9718 14.9512 23.8613 14.7637 23.791 14.5992C23.6035 14.1617 23.5091 13.6768 23.3072 13.2395C23.2128 13.0356 23.049 12.8247 22.9163 12.637C22.7673 12.4261 22.6035 12.2775 22.4856 12.0274C22.4467 11.9414 22.3921 11.8008 22.4547 11.7073C22.47 11.6445 22.5018 11.6211 22.5641 11.6054C22.6654 11.5198 22.9548 11.6286 23.0563 11.6757C23.3461 11.7929 23.5884 11.9023 23.8303 12.0664C23.9398 12.1448 24.0572 12.2934 24.1976 12.3325H24.3621C24.6117 12.3869 24.8932 12.3476 25.1282 12.4183C25.5423 12.5514 25.9175 12.7467 26.254 12.9574C27.2779 13.6067 28.1222 14.5293 28.6923 15.6313C28.7858 15.8108 28.8256 15.9753 28.9109 16.1626C29.0756 16.546 29.2792 16.9369 29.4427 17.3121C29.6069 17.6793 29.7635 18.0543 29.998 18.3594C30.115 18.5235 30.585 18.6095 30.7957 18.6955C30.9516 18.7656 31.1944 18.8279 31.335 18.9139C31.601 19.0778 31.8659 19.2659 32.1159 19.4461C32.2405 19.5398 32.6318 19.7353 32.655 19.8918ZM24.681 13.0984C24.5731 13.0973 24.4655 13.1105 24.361 13.1378V13.1535H24.3761C24.4391 13.2784 24.5485 13.365 24.6266 13.474C24.6896 13.5994 24.7442 13.7237 24.8059 13.8488L24.821 13.8333C24.9313 13.7553 24.9861 13.6301 24.9861 13.4424C24.9386 13.3872 24.9313 13.3332 24.8917 13.2784C24.8457 13.2001 24.7442 13.1612 24.681 13.0984Z" fill="#5D87A1"/>
<path d="M33.3998 28.5277H33.5618V27.7351H33.3188L33.1206 28.276L32.9053 27.7351H32.6714V28.5277H32.8243V27.9247H32.8329L33.0585 28.5277H33.1751L33.3998 27.9247V28.5277ZM32.0951 28.5277H32.2665V27.8694H32.4908V27.7349H31.8613V27.8694H32.0946L32.0951 28.5277Z" fill="#F8981D"/>
</svg>
