<svg width="40" height="40" viewBox="0 0 40 40" fill="none" xmlns="http://www.w3.org/2000/svg">
<g clip-path="url(#clip0_3059_4338)">
<path d="M8.56691 25.1968C8.56691 27.496 6.70865 29.3543 4.40943 29.3543C2.11022 29.3543 0.251953 27.496 0.251953 25.1968C0.251953 22.8976 2.11022 21.0393 4.40943 21.0393H8.56691V25.1968ZM10.6457 25.1968C10.6457 22.8976 12.5039 21.0393 14.8031 21.0393C17.1023 21.0393 18.9606 22.8976 18.9606 25.1968V35.5905C18.9606 37.8897 17.1023 39.748 14.8031 39.748C12.5039 39.748 10.6457 37.8897 10.6457 35.5905V25.1968Z" fill="#E01E5A"/>
<path d="M14.8034 8.50392C12.5042 8.50392 10.6459 6.64566 10.6459 4.34644C10.6459 2.04723 12.5042 0.188965 14.8034 0.188965C17.1026 0.188965 18.9609 2.04723 18.9609 4.34644V8.50392H14.8034ZM14.8034 10.6142C17.1026 10.6142 18.9609 12.4724 18.9609 14.7716C18.9609 17.0709 17.1026 18.9291 14.8034 18.9291H4.37818C2.07897 18.9291 0.220703 17.0709 0.220703 14.7716C0.220703 12.4724 2.07897 10.6142 4.37818 10.6142H14.8034Z" fill="#36C5F0"/>
<path d="M31.464 14.7716C31.464 12.4724 33.3223 10.6142 35.6215 10.6142C37.9207 10.6142 39.779 12.4724 39.779 14.7716C39.779 17.0709 37.9207 18.9291 35.6215 18.9291H31.464V14.7716ZM29.3853 14.7716C29.3853 17.0709 27.527 18.9291 25.2278 18.9291C22.9286 18.9291 21.0703 17.0709 21.0703 14.7716V4.34644C21.0703 2.04723 22.9286 0.188965 25.2278 0.188965C27.527 0.188965 29.3853 2.04723 29.3853 4.34644V14.7716Z" fill="#2EB67D"/>
<path d="M25.2278 31.433C27.527 31.433 29.3853 33.2913 29.3853 35.5905C29.3853 37.8897 27.527 39.748 25.2278 39.748C22.9286 39.748 21.0703 37.8897 21.0703 35.5905V31.433H25.2278ZM25.2278 29.3543C22.9286 29.3543 21.0703 27.496 21.0703 25.1968C21.0703 22.8976 22.9286 21.0393 25.2278 21.0393H35.653C37.9522 21.0393 39.8105 22.8976 39.8105 25.1968C39.8105 27.496 37.9522 29.3543 35.653 29.3543H25.2278Z" fill="#ECB22E"/>
</g>
<defs>
<clipPath id="clip0_3059_4338">
<rect width="40" height="40" fill="white"/>
</clipPath>
</defs>
</svg>
