<svg width="40" height="40" viewBox="0 0 40 40" fill="none" xmlns="http://www.w3.org/2000/svg">
<g clip-path="url(#clip0_3059_4353)">
<path d="M34 0H6C2.68629 0 0 2.68629 0 6V34C0 37.3137 2.68629 40 6 40H34C37.3137 40 40 37.3137 40 34V6C40 2.68629 37.3137 0 34 0Z" fill="white"/>
<path d="M31.7969 26.2501C32.1875 26.6407 32.5 27.6563 32.5 28.2813C32.5 28.9063 32.5 29.4532 32.3438 29.922C32.3438 30.1563 31.875 32.5001 28.9844 33.9063L27.1875 34.5313L26.0938 34.7657C21.0938 35.7032 14.5312 34.5313 19.5312 33.9845L20.8594 33.8282C21.9567 33.5832 23.0506 33.3228 24.1406 33.047H24.2188C24.5313 32.9429 24.8438 32.8387 25.1562 32.7345C26.4062 32.1876 27.7344 31.4845 28.8281 30.4688C29.6094 29.6876 30.3125 28.7501 30.8594 27.5782L31.3281 26.4063C31.3281 26.2501 31.6406 26.172 31.7969 26.2501ZM27.1094 21.8751C28.4375 21.6407 29.2969 22.2657 29.375 23.3595C29.4531 24.3751 29.1406 25.3126 28.3594 26.0938C27.7344 26.797 26.9531 27.1095 25.8594 27.0313C24.8089 26.9858 23.7638 26.8552 22.7344 26.6407C21.25 26.2501 20.7031 25.1563 21.6406 24.297C22.1875 23.7501 22.8906 23.3595 23.5938 23.047L25.3906 22.3438C25.9375 22.1095 26.5625 21.9532 27.1094 21.8751ZM10.625 20.7032C10.8594 19.297 12.0312 18.672 13.2812 19.297C14.3911 20.0017 15.4851 20.7311 16.5625 21.4845C17.6002 22.3346 18.4739 23.3672 19.1406 24.5313L19.2188 25.3126C19.0625 26.0938 18.5156 26.4845 17.8125 26.797L16.7969 26.8751H15.3125L14.0625 26.7188C12.8906 26.6407 12.0312 26.172 11.4062 25.2345C10.5561 23.8871 10.2751 22.2575 10.625 20.7032ZM30.625 8.75009L30.8594 8.90634C31.1719 9.21884 31.4844 9.60947 31.0938 10.1563L31.0156 10.2345V10.3907L31.1719 10.547C32.4219 12.2657 33.2812 14.1407 33.6719 16.2501L33.8281 16.5626L33.9844 16.6407C35.0781 17.1876 35.625 18.047 35.625 19.2188V20.7032L35.5469 22.3438C35.2344 23.9063 33.75 24.922 32.2656 24.6095C31.7969 24.5313 31.7188 24.1407 31.7188 23.7501C31.7138 22.0313 31.7138 20.3126 31.7188 18.5938C31.7239 17.0549 31.4258 15.53 30.8417 14.1063C30.2575 12.6826 29.3986 11.3878 28.314 10.296C26.1237 8.09098 23.1471 6.84639 20.0391 6.83603C16.9311 6.82567 13.9462 8.05039 11.7412 10.2408C9.5362 12.4311 8.29161 15.4077 8.28125 18.5157V23.9063C8.28125 24.3751 7.96875 24.6095 7.5 24.6095C5.625 24.6876 4.375 23.5157 4.375 21.6407V19.5313L4.45312 18.7501C4.60938 17.8126 5.07812 17.1095 5.9375 16.6407H6.01562L6.09375 16.5626C6.25 16.4845 6.32812 16.3282 6.32812 16.172C6.71875 14.1407 7.5 12.2657 8.67188 10.6251L8.82812 10.3907V10.0001C8.59375 9.68759 8.75 9.45322 8.90625 9.14072H8.98438C10.7031 7.18759 12.7344 5.78134 15.2344 5.00009C21.0938 3.20322 26.25 4.45322 30.625 8.75009Z" fill="#2580C3"/>
</g>
<defs>
<clipPath id="clip0_3059_4353">
<rect width="40" height="40" fill="white"/>
</clipPath>
</defs>
</svg>
