<svg width="40" height="40" viewBox="0 0 40 40" fill="none" xmlns="http://www.w3.org/2000/svg">
<g clip-path="url(#clip0_3059_4345)">
<path d="M36.0938 0H3.90625C1.74889 0 0 1.74889 0 3.90625V36.0938C0 38.2511 1.74889 40 3.90625 40H36.0938C38.2511 40 40 38.2511 40 36.0938V3.90625C40 1.74889 38.2511 0 36.0938 0Z" fill="url(#paint0_linear_3059_4345)"/>
<path d="M32.9246 5.19995H24.4746C23.4391 5.19995 22.5996 6.03942 22.5996 7.07495V20.825C22.5996 21.8605 23.4391 22.7 24.4746 22.7H32.9246C33.9601 22.7 34.7996 21.8605 34.7996 20.825V7.07495C34.7996 6.03942 33.9601 5.19995 32.9246 5.19995Z" fill="white"/>
<path d="M15.5242 5.19995H7.07422C6.03868 5.19995 5.19922 6.03942 5.19922 7.07495V30.825C5.19922 31.8605 6.03868 32.7 7.07422 32.7H15.5242C16.5598 32.7 17.3992 31.8605 17.3992 30.825V7.07495C17.3992 6.03942 16.5598 5.19995 15.5242 5.19995Z" fill="white"/>
</g>
<defs>
<linearGradient id="paint0_linear_3059_4345" x1="2000" y1="0" x2="2000" y2="4000" gradientUnits="userSpaceOnUse">
<stop stop-color="#0091E6"/>
<stop offset="1" stop-color="#0079BF"/>
</linearGradient>
<clipPath id="clip0_3059_4345">
<rect width="40" height="40" fill="white"/>
</clipPath>
</defs>
</svg>
