<svg width="40" height="40" viewBox="0 0 40 40" fill="none" xmlns="http://www.w3.org/2000/svg">
<path d="M3.00915 11.2768C5.20879 9.03379 7.98044 8.00889 11.3487 8.23341C14.5925 8.44962 17.8978 10.05 20.2658 12.4083C22.2784 14.4125 23.0394 16.3759 23.0132 19.31C23.2368 18.8312 23.6738 18.4534 24.3726 18.4534C25.4296 18.4534 25.8957 19.3135 25.8957 20.0554V20.3507H23.5518C23.5518 20.8695 23.8538 21.2633 24.3726 21.2633C24.7402 21.2633 25.0752 21.0531 25.2392 20.7053L25.8234 20.9351C25.4887 21.5849 25.1013 21.8674 24.3726 21.8674C23.5761 21.8674 23.1197 21.3764 22.9317 20.8046C22.6413 23.5638 21.5528 25.9816 19.6563 27.9952C17.3688 30.4239 14.7683 31.722 11.7724 31.7694L11.6745 31.7705C8.64321 31.792 5.98017 30.5841 3.67284 28.2289C1.38217 25.8906 0.151323 23.1047 0.0135148 19.8257C-0.130382 16.3832 0.875249 13.4524 3.00915 11.2768ZM11.3394 8.37286C8.01133 8.15101 5.27965 9.16113 3.10893 11.3746C1.00346 13.5212 0.0107965 16.4143 0.153149 19.8199C0.289491 23.064 1.50592 25.8172 3.77267 28.1311C6.07902 30.4853 8.73834 31.6774 11.7702 31.6296L11.8654 31.6277C14.7808 31.5552 17.3159 30.2763 19.5546 27.8994C21.5391 25.7923 22.6282 23.2392 22.8351 20.3088C22.8314 20.2589 22.8297 20.2094 22.8297 20.1604C22.8297 20.0396 22.8403 19.9158 22.8623 19.7926C22.9775 16.6215 22.2602 14.5916 20.1672 12.5073C17.8223 10.172 14.5482 8.58673 11.3394 8.37286ZM15.5602 18.506L16.6231 20.9308L17.7502 18.506H18.5447L16.3841 23.1541H15.5894L16.2182 21.8018L14.7735 18.506H15.5602ZM20.7585 18.4534C21.7235 18.4534 22.2356 19.0836 22.2356 20.1604C22.2356 21.2108 21.7168 21.8674 20.7452 21.8674C20.3578 21.8674 20.0231 21.6835 19.859 21.4473V23.154H19.1762V18.5061H19.859V18.8868C19.9838 18.67 20.3578 18.4534 20.7585 18.4534ZM30.3705 18.4534C30.863 18.4534 31.2569 18.6175 31.5523 18.9459C31.8478 19.2742 31.9987 19.6812 31.9987 20.1604C31.9987 20.6396 31.8478 21.0467 31.5523 21.375C31.2569 21.7032 30.863 21.8674 30.3705 21.8674C29.8782 21.8674 29.4778 21.7032 29.1822 21.375C28.8867 21.0467 28.7424 20.6396 28.7424 20.1604C28.7424 19.6812 28.8867 19.2742 29.1822 18.9459C29.4778 18.6175 29.8782 18.4534 30.3705 18.4534ZM14.6647 17.2193V17.902H13.2147V21.8149H12.4925V17.902H11.0425V17.2193H14.6647ZM34.3084 18.4534C34.4593 18.4534 34.5971 18.4798 34.7285 18.5322L34.6102 19.1559C34.5053 19.0903 34.374 19.0576 34.223 19.0576C33.9801 19.0576 33.7699 19.1888 33.5928 19.4578C33.4155 19.7204 33.3301 20.0947 33.3301 20.5871V21.8148H32.6474V18.5061H33.3301V19.0576C33.5468 18.6701 33.9407 18.4534 34.3084 18.4534ZM39.0547 18.4535C39.652 18.4535 40 18.8473 40 19.4448V21.8148H39.3173V19.5959C39.3173 19.2479 39.1268 19.0575 38.8314 19.0575C38.4047 19.0575 38.0567 19.6154 38.0567 20.4886V21.8148H37.3738V19.5959C37.3738 19.2479 37.1835 19.0575 36.8882 19.0575C36.4482 19.0575 36.1134 19.6154 36.1134 20.5609V21.8148H35.4306V18.506H36.1134V19.0707C36.3827 18.657 36.7108 18.4535 37.1112 18.4535C37.5577 18.4535 37.9254 18.7227 38.024 19.1362C38.2536 18.6964 38.6279 18.4535 39.0547 18.4535ZM27.9885 17.1667C28.2052 17.1667 28.3827 17.206 28.5336 17.2848L28.3955 17.8626C28.2776 17.8034 28.1462 17.7706 28.0083 17.7706C27.7129 17.7706 27.5619 17.9414 27.5619 18.2894V18.506H28.2906V19.1099H27.5619V21.8148H26.8792V19.1099H26.4523V18.506H26.8792V18.3354C26.8792 17.554 27.2994 17.1667 27.9885 17.1667ZM20.6664 19.0574C20.417 19.0574 20.2135 19.156 20.056 19.3596C19.8983 19.5564 19.8196 19.8255 19.8196 20.1604C19.8196 20.4953 19.8983 20.7643 20.056 20.9679C20.2135 21.1648 20.417 21.2634 20.6664 21.2634C20.916 21.2634 21.1195 21.1648 21.2772 20.9679C21.4347 20.7643 21.5134 20.4953 21.5134 20.1604C21.5134 19.8255 21.4347 19.5564 21.2772 19.3596C21.1195 19.156 20.916 19.0574 20.6664 19.0574ZM30.3705 19.0574C30.0882 19.0574 29.865 19.169 29.7008 19.3857C29.5433 19.6023 29.4646 19.8584 29.4646 20.1604C29.4646 20.4624 29.5433 20.725 29.7008 20.9416C29.865 21.1584 30.0882 21.2634 30.3705 21.2634C30.6528 21.2634 30.8762 21.1584 31.0337 20.9416C31.1978 20.725 31.2766 20.4624 31.2766 20.1604C31.2766 19.8584 31.1978 19.6023 31.0337 19.3857C30.8762 19.169 30.6528 19.0574 30.3705 19.0574ZM24.3726 19.0576C23.9328 19.0576 23.6438 19.3529 23.5651 19.7797H25.1735C25.1144 19.366 24.8387 19.0576 24.3726 19.0576Z" fill="white"/>
</svg>
