<svg width="40" height="40" viewBox="0 0 40 40" fill="none" xmlns="http://www.w3.org/2000/svg">
<path d="M20 40C31.0457 40 40 31.0457 40 20C40 8.95431 31.0457 0 20 0C8.95431 0 0 8.95431 0 20C0 31.0457 8.95431 40 20 40Z" fill="#1976D2"/>
<path d="M26.0998 17.43C26.0998 17.43 24.3698 22.85 24.2398 23.31C24.1898 22.85 22.9298 13.11 22.9298 13.11C19.9798 13.11 18.4098 15.2 17.5798 17.43C17.5798 17.43 15.4798 22.87 15.3098 23.33C15.2998 22.9 14.9898 17.49 14.9898 17.49C14.8098 14.77 12.3298 13.12 10.3198 13.12L12.7398 27.88C15.8298 27.87 17.4898 25.78 18.3598 23.56C18.3598 23.56 20.2098 18.76 20.2898 18.54C20.3098 18.75 21.6198 27.88 21.6198 27.88C24.7098 27.88 26.3798 25.92 27.2798 23.78L31.5998 13.11C28.5398 13.11 26.9298 15.2 26.0998 17.43Z" fill="white"/>
</svg>
